<?xml version="1.0" encoding="iso-8859-1"?>
<!-- Generator: Adobe Illustrator 18.1.1, SVG Export Plug-In . SVG Version: 6.00 Build 0)  -->
<svg version="1.1" id="Capa_1" xmlns="http://www.w3.org/2000/svg" xmlns:xlink="http://www.w3.org/1999/xlink" x="0px" y="0px"
	 viewBox="0 0 288.269 288.269" style="enable-background:new 0 0 288.269 288.269;" xml:space="preserve">
<g>
	<path style="fill:blue;" d="M0.531,88.155c-3.671,41.092,11.808,77.877,42.996,104.376
		c14.887,12.651,32.069,22.501,48.685,32.645c13.728,8.387,36.121,32.188,51.938,32.188c14.832,0,33.869-20.919,46.439-28.794
		c16.731-10.487,34.049-20.141,49.588-32.406c33.298-26.287,48.174-60.205,48.092-102.461c-0.147-72.932-98.877-76.12-144.103-39.64
		C100.419,18.551,6.672,19.443,0.531,88.155z M60.709,59.251c26.042-6.859,56.691,3.013,73.83,23.323
		c2.904,3.448,6.326,4.705,9.611,4.493c3.291,0.212,6.706-1.044,9.616-4.493c16.861-19.983,41.723-26.401,67.08-24.536
		c35.468,2.605,43.523,31.334,38.422,61.935c-4.944,29.67-26.521,49.272-50.284,65.165c-12.276,8.213-25.139,15.567-37.649,23.41
		c-5.635,3.53-11.117,7.267-16.584,11.041c-1.517,1.044-8.398,5.053-11.275,7.821c-4.591-4.514-17.824-13.228-20.962-15.306
		c-12.434-8.257-25.395-15.713-38.041-23.644c-24.606-15.447-45.351-33.352-53.939-61.994
		C21.335,95.775,28.151,67.829,60.709,59.251z"/>
</g>
<g>
</g>
<g>
</g>
<g>
</g>
<g>
</g>
<g>
</g>
<g>
</g>
<g>
</g>
<g>
</g>
<g>
</g>
<g>
</g>
<g>
</g>
<g>
</g>
<g>
</g>
<g>
</g>
<g>
</g>
</svg>
